<?xml version="1.0" encoding="UTF-8" standalone="no"?>
<svg width="442px" height="95px" viewBox="0 0 442 95" version="1.1" xmlns="http://www.w3.org/2000/svg" xmlns:xlink="http://www.w3.org/1999/xlink" xmlns:sketch="http://www.bohemiancoding.com/sketch/ns">
    <title>Untitled 7</title>
    <description>Created with Sketch (http://www.bohemiancoding.com/sketch)</description>
    <defs></defs>
    <g id="Page-1" stroke="none" stroke-width="1" fill="none" fill-rule="evenodd" sketch:type="MSPage">
        <g id="CCUI-Logo-On-Dark" sketch:type="MSLayerGroup" transform="translate(-7.000000, -8.000000)">
            <g id="Shadow" transform="translate(8.000000, 13.000000)" fill="#3E3B38" sketch:type="MSShapeGroup">
                <path d="M396.425,1.301 C376.265,1.301 359.285,14.864 354.079,33.359 C350.897,40.856 344.696,53.095 336.849,56.87 C332.279,59.069 333.873,58.919 332.529,59.558 C332.848,59.174 333.185,58.759 333.537,58.31 C333.888,57.863 334.224,57.383 334.545,56.87 C335.76,55.014 336.688,53.126 337.329,51.206 C337.968,49.286 338.321,47.462 338.385,45.734 C338.448,44.006 338.208,42.47 337.665,41.126 C337.121,39.782 336.273,38.726 335.121,37.958 C333.84,37.127 332.385,36.791 330.753,36.95 C329.121,37.111 327.441,37.67 325.713,38.63 L327.729,34.022 C328.049,33.254 327.969,32.615 327.489,32.102 C327.009,31.59 326.369,31.238 325.569,31.046 C324.768,30.854 323.952,30.854 323.121,31.046 C322.288,31.238 321.744,31.622 321.489,32.198 C321.04,33.222 320.272,34.902 319.185,37.238 C318.096,39.575 316.864,42.246 315.489,45.254 C314.686,47.01 313.852,48.826 312.995,50.69 C312.182,51.75 311.46,52.611 310.833,53.27 C310.192,53.942 309.328,54.854 308.241,56.006 C307.665,56.582 307.025,57.158 306.321,57.734 C305.616,58.31 304.912,58.823 304.209,59.27 C303.504,59.718 302.848,60.023 302.241,60.182 C301.632,60.343 301.168,60.263 300.849,59.942 C300.528,59.687 300.448,59.222 300.609,58.55 C300.768,57.878 301.056,57.062 301.473,56.102 C301.889,55.142 302.433,54.086 303.105,52.934 C303.777,51.782 304.464,50.567 305.169,49.286 C305.872,48.007 306.672,46.55 307.569,44.918 C308.465,43.286 309.264,41.863 309.969,40.646 C310.48,39.815 310.545,39.095 310.161,38.486 C309.777,37.879 309.216,37.447 308.481,37.19 C307.744,36.935 306.929,36.935 306.033,37.19 C305.136,37.447 304.401,38.023 303.825,38.918 C303.377,39.623 302.848,40.487 302.241,41.51 C301.632,42.535 300.993,43.622 300.321,44.774 C299.649,45.926 298.992,47.094 298.353,48.278 C297.914,49.091 297.491,49.846 297.082,50.552 C297.059,50.58 297.032,50.6 297.009,50.63 C296.241,51.719 295.168,52.967 293.793,54.374 C292.416,55.783 290.993,57.031 289.521,58.118 C289.2,58.374 288.849,58.614 288.465,58.838 C288.081,59.063 287.745,59.207 287.457,59.27 C287.169,59.335 287.009,59.255 286.977,59.03 C286.944,58.806 287.121,58.343 287.505,57.638 C288.336,56.294 289.121,54.998 289.857,53.75 C290.592,52.502 291.312,51.175 292.017,49.766 C293.104,47.783 293.937,46.007 294.513,44.438 C295.089,42.87 295.056,41.447 294.417,40.166 C294.033,39.335 293.536,38.598 292.929,37.958 C292.32,37.319 291.569,36.935 290.673,36.806 C289.776,36.678 288.672,36.871 287.361,37.382 C286.049,37.895 284.529,38.918 282.801,40.454 C283.953,37.895 285.057,35.399 286.113,32.966 C287.169,30.535 288.144,28.343 289.041,26.39 C289.937,24.438 290.673,22.79 291.249,21.446 C291.825,20.102 292.209,19.238 292.401,18.854 C292.721,18.086 292.641,17.447 292.161,16.934 C291.681,16.423 291.04,16.07 290.241,15.878 C289.587,15.721 288.935,15.689 288.282,15.766 C288.858,14.537 289.337,13.325 289.713,12.134 C290.481,9.702 290.705,7.511 290.385,5.558 C290.064,3.606 288.88,2.15 286.833,1.19 C283.824,-0.282 280.353,-0.762 276.417,-0.25 C272.481,0.263 268.433,1.718 264.273,4.118 C260.112,6.518 256.08,9.894 252.177,14.246 C248.273,18.599 244.881,23.879 242.001,30.086 C239.121,36.295 237.472,41.702 237.057,46.31 C236.947,47.525 236.905,48.681 236.922,49.785 C236.449,49.904 236.06,50.182 235.761,50.63 C235.377,51.206 234.849,51.83 234.177,52.502 C233.505,53.174 232.785,53.863 232.017,54.566 C231.249,55.271 230.465,55.943 229.665,56.582 C228.864,57.223 228.081,57.767 227.313,58.214 C225.777,59.174 224.289,59.798 222.849,60.086 C221.409,60.374 220.128,60.422 219.009,60.23 C217.889,60.038 216.96,59.606 216.225,58.934 C215.489,58.262 215.057,57.415 214.929,56.39 C215.697,56.455 216.624,56.455 217.713,56.39 C218.8,56.327 219.984,56.087 221.265,55.67 C222.544,55.254 223.889,54.647 225.297,53.846 C226.704,53.046 228.144,51.942 229.617,50.534 C230.385,49.831 231.136,48.887 231.873,47.702 C232.608,46.519 233.121,45.287 233.409,44.006 C233.697,42.726 233.649,41.51 233.265,40.358 C232.881,39.206 231.984,38.342 230.577,37.766 C229.041,37.19 227.361,37.031 225.537,37.286 C223.713,37.543 221.92,38.183 220.161,39.206 C218.4,40.23 216.705,41.558 215.073,43.19 C213.441,44.822 212.016,46.694 210.801,48.806 C210.479,49.39 210.207,49.994 209.957,50.606 C209.951,50.615 209.943,50.621 209.937,50.63 C209.104,51.719 208.368,52.598 207.729,53.27 C207.088,53.942 206.193,54.854 205.041,56.006 C204.465,56.582 203.824,57.158 203.121,57.734 C202.416,58.31 201.729,58.823 201.057,59.27 C200.385,59.718 199.745,60.023 199.137,60.182 C198.528,60.343 198.065,60.263 197.745,59.942 C197.424,59.687 197.344,59.222 197.505,58.55 C197.664,57.878 197.952,57.062 198.369,56.102 C198.785,55.142 199.329,54.086 200.001,52.934 C200.673,51.782 201.36,50.567 202.065,49.286 L210.033,35.27 L215.697,35.078 C216.528,35.078 217.296,34.775 218.001,34.166 C218.704,33.559 219.216,32.918 219.537,32.246 C219.857,31.574 219.921,30.967 219.729,30.422 C219.537,29.879 218.961,29.606 218.001,29.606 C217.488,29.671 216.816,29.702 215.985,29.702 L213.297,29.702 L214.257,28.07 C214.704,27.239 214.752,26.519 214.401,25.91 C214.049,25.303 213.489,24.871 212.721,24.614 C211.953,24.359 211.12,24.359 210.225,24.614 C209.328,24.871 208.593,25.447 208.017,26.342 L205.905,29.798 C204.88,29.863 203.952,29.894 203.121,29.894 L201.105,29.894 C200.081,29.959 199.152,30.278 198.321,30.854 C197.489,31.43 196.912,32.07 196.593,32.774 C196.272,33.479 196.305,34.103 196.689,34.646 C197.073,35.19 197.937,35.462 199.281,35.462 L201.009,35.462 C201.585,35.462 202.128,35.431 202.641,35.366 C201.744,36.967 200.817,38.598 199.857,40.262 C198.897,41.927 197.985,43.495 197.121,44.966 C196.257,46.439 195.504,47.75 194.865,48.902 C194.485,49.586 194.169,50.155 193.902,50.636 C193.136,51.722 192.417,52.599 191.747,53.27 C191.075,53.942 190.195,54.854 189.107,56.006 C188.531,56.582 187.955,57.031 187.379,57.35 C186.803,57.671 186.29,57.847 185.843,57.878 C185.394,57.911 185.123,57.782 185.027,57.494 C184.931,57.206 185.075,56.711 185.459,56.006 C185.906,55.367 186.498,54.359 187.235,52.982 C187.97,51.607 188.754,50.135 189.587,48.566 C190.418,46.998 191.219,45.462 191.987,43.958 C192.755,42.455 193.394,41.19 193.907,40.166 C194.419,39.27 194.467,38.567 194.051,38.054 C193.634,37.543 193.027,37.238 192.227,37.142 C191.426,37.046 190.579,37.175 189.683,37.526 C188.786,37.878 188.147,38.438 187.763,39.206 C187.315,38.759 186.834,38.375 186.323,38.054 C185.81,37.734 185.251,37.463 184.643,37.238 C184.034,37.014 183.314,36.902 182.483,36.902 C181.267,36.902 179.843,37.158 178.211,37.67 C176.579,38.183 174.899,38.982 173.171,40.07 C171.443,41.159 169.73,42.551 168.035,44.246 C166.338,45.942 164.882,47.942 163.667,50.246 C163.593,50.38 163.538,50.507 163.468,50.64 C162.572,51.727 161.471,52.986 160.164,54.422 C158.851,55.862 157.491,57.126 156.084,58.214 C154.356,59.495 152.931,60.119 151.812,60.086 C150.692,60.054 149.859,59.639 149.316,58.838 C148.772,58.038 148.515,56.999 148.548,55.718 C148.579,54.439 148.851,53.191 149.364,51.974 C151.284,50.438 153.236,48.839 155.22,47.174 C156.884,45.767 158.66,44.231 160.548,42.566 C162.435,40.902 164.211,39.302 165.876,37.766 C168.308,35.462 170.292,33.318 171.828,31.334 C173.364,29.351 174.516,27.542 175.284,25.91 C176.052,24.278 176.484,22.806 176.58,21.494 C176.676,20.183 176.499,19.015 176.052,17.99 C175.539,16.775 174.9,16.086 174.132,15.926 C173.364,15.767 172.212,16.07 170.676,16.838 C168.627,17.798 166.404,19.303 164.004,21.35 C161.604,23.399 159.204,25.814 156.804,28.598 C154.404,31.382 152.084,34.487 149.844,37.91 C147.603,41.334 145.62,44.966 143.892,48.806 C143.614,49.396 143.359,50.008 143.119,50.635 C142.223,51.722 141.154,52.616 139.908,53.318 C138.66,54.023 137.556,54.342 136.596,54.278 C136.851,53.831 137.076,53.383 137.268,52.934 C137.46,52.487 137.652,52.007 137.844,51.494 C138.548,49.511 138.9,47.639 138.9,45.878 C138.9,44.118 138.595,42.582 137.988,41.27 C137.379,39.959 136.467,38.918 135.252,38.15 C134.035,37.382 132.564,36.998 130.836,36.998 C129.108,36.998 127.363,37.382 125.604,38.15 C123.843,38.918 122.163,39.959 120.564,41.27 C118.963,42.582 117.523,44.119 116.244,45.878 C115.142,47.393 114.243,48.994 113.521,50.673 C113.079,51.237 112.548,51.846 111.925,52.502 C111.284,53.174 110.581,53.863 109.813,54.566 C109.045,55.271 108.244,55.943 107.413,56.582 C106.58,57.223 105.781,57.767 105.013,58.214 C103.029,59.43 101.236,60.086 99.637,60.182 C98.037,60.278 96.757,59.959 95.797,59.222 C94.837,58.487 94.276,57.446 94.117,56.102 C93.956,54.758 94.357,53.222 95.317,51.494 C96.085,50.15 96.916,48.902 97.813,47.75 C98.709,46.598 99.604,45.59 100.501,44.726 C101.397,43.862 102.261,43.19 103.093,42.71 C103.924,42.23 104.66,41.99 105.301,41.99 C105.94,41.99 106.228,42.198 106.165,42.614 C106.1,43.031 105.844,43.543 105.397,44.15 C104.949,44.759 104.404,45.383 103.765,46.022 C103.125,46.663 102.58,47.207 102.133,47.654 C101.685,48.038 101.557,48.518 101.749,49.094 C101.941,49.67 102.292,50.167 102.805,50.582 C103.317,50.999 103.94,51.239 104.677,51.302 C105.412,51.366 106.132,51.11 106.837,50.534 C107.605,49.895 108.469,48.983 109.429,47.798 C110.389,46.614 111.124,45.366 111.637,44.054 C112.149,42.743 112.324,41.51 112.165,40.358 C112.005,39.206 111.22,38.342 109.813,37.766 C108.277,37.19 106.597,37.031 104.773,37.286 C102.949,37.543 101.157,38.183 99.397,39.206 C97.636,40.23 95.941,41.558 94.309,43.19 C92.677,44.822 91.252,46.694 90.037,48.806 C89.683,49.436 89.376,50.107 89.106,50.81 C88.242,51.815 87.229,52.655 86.053,53.318 C84.805,54.023 83.701,54.342 82.741,54.278 C82.996,53.831 83.221,53.383 83.413,52.934 C83.605,52.487 83.797,52.007 83.989,51.494 C84.692,49.511 85.045,47.639 85.045,45.878 C85.045,44.118 84.74,42.582 84.133,41.27 C83.524,39.959 82.612,38.918 81.397,38.15 C80.181,37.382 78.709,36.998 76.981,36.998 C75.253,36.998 73.509,37.382 71.749,38.15 C69.988,38.918 68.308,39.959 66.709,41.27 C65.109,42.582 63.669,44.119 62.389,45.878 C61.285,47.395 60.385,49 59.662,50.683 C58.897,51.76 57.84,52.989 56.485,54.374 C55.108,55.783 53.684,57.031 52.213,58.118 C51.892,58.374 51.541,58.614 51.157,58.838 C50.773,59.063 50.437,59.207 50.149,59.27 C49.861,59.335 49.7,59.255 49.669,59.03 C49.636,58.806 49.813,58.343 50.197,57.638 C51.028,56.294 51.812,54.998 52.549,53.75 C53.284,52.502 54.004,51.175 54.709,49.766 C55.797,47.783 56.629,46.007 57.205,44.438 C57.781,42.87 57.748,41.447 57.109,40.166 C56.725,39.335 56.229,38.598 55.621,37.958 C55.012,37.319 54.26,36.935 53.365,36.806 C52.468,36.678 51.364,36.871 50.053,37.382 C48.741,37.895 47.221,38.918 45.493,40.454 C46.645,37.895 47.749,35.399 48.805,32.966 C49.861,30.535 50.836,28.343 51.733,26.39 C52.629,24.438 53.365,22.79 53.941,21.446 C54.517,20.102 54.901,19.238 55.093,18.854 C55.413,18.086 55.333,17.447 54.853,16.934 C54.373,16.423 53.733,16.07 52.933,15.878 C52.279,15.721 51.627,15.689 50.975,15.766 C51.551,14.537 52.03,13.325 52.406,12.134 C53.174,9.702 53.397,7.511 53.078,5.558 C52.757,3.606 51.574,2.15 49.526,1.19 C46.517,-0.282 43.046,-0.762 39.11,-0.25 C35.174,0.263 31.126,1.718 26.966,4.118 C22.805,6.518 18.773,9.894 14.87,14.246 C10.966,18.599 7.574,23.879 4.694,30.086 C1.814,36.295 0.165,41.702 -0.25,46.31 C-0.667,50.918 -0.171,54.726 1.238,57.734 C2.645,60.743 4.838,62.934 7.814,64.31 C10.79,65.687 14.229,66.278 18.134,66.086 C19.733,65.957 21.398,65.606 23.126,65.03 C24.651,64.522 26.225,63.689 27.849,62.533 C27.675,63.287 27.736,63.948 28.069,64.502 C28.549,65.303 29.221,65.846 30.085,66.134 C30.949,66.422 31.846,66.437 32.773,66.182 C33.7,65.926 34.388,65.351 34.837,64.454 L41.365,49.862 C42.261,48.967 43.221,48.119 44.245,47.318 C45.268,46.519 46.293,45.767 47.317,45.062 C47.637,44.807 48.037,44.567 48.517,44.342 C48.997,44.118 49.396,43.975 49.717,43.91 C50.037,43.847 50.245,43.927 50.341,44.15 C50.437,44.375 50.293,44.838 49.909,45.542 C49.588,45.99 49.252,46.55 48.901,47.222 C48.548,47.894 48.164,48.599 47.749,49.334 C47.332,50.071 46.933,50.79 46.549,51.494 C46.165,52.199 45.844,52.806 45.589,53.318 C44.5,55.367 43.717,57.175 43.237,58.742 C42.757,60.311 42.836,61.735 43.477,63.014 C43.861,63.847 44.404,64.55 45.109,65.126 C45.813,65.702 46.693,66.005 47.749,66.038 C48.805,66.069 50.02,65.798 51.397,65.222 C52.773,64.646 54.325,63.59 56.053,62.054 C56.904,61.324 57.725,60.533 58.519,59.687 C58.671,60.401 58.885,61.065 59.173,61.67 C59.781,62.951 60.693,63.974 61.909,64.742 C63.124,65.51 64.564,65.894 66.229,65.894 C68.469,65.894 70.724,65.287 72.997,64.07 C75.268,62.855 77.332,61.223 79.189,59.174 C80.596,59.75 82.052,59.894 83.557,59.606 C85.06,59.318 86.485,58.807 87.829,58.07 C87.887,58.039 87.939,58.004 87.996,57.972 C88.047,58.552 88.128,59.129 88.261,59.702 C88.549,60.95 89.077,62.054 89.845,63.014 C90.484,63.847 91.477,64.535 92.821,65.078 C94.165,65.622 95.701,65.909 97.429,65.942 C99.157,65.973 100.996,65.702 102.949,65.126 C104.901,64.55 106.804,63.527 108.661,62.054 C109.621,61.351 110.565,60.583 111.493,59.75 C111.764,59.507 112.002,59.263 112.265,59.02 C112.409,59.991 112.654,60.882 113.028,61.67 C113.635,62.951 114.548,63.974 115.764,64.742 C116.979,65.51 118.419,65.894 120.084,65.894 C122.324,65.894 124.58,65.287 126.852,64.07 C129.123,62.855 131.187,61.223 133.044,59.174 C134.451,59.75 135.907,59.894 137.412,59.606 C138.904,59.32 140.319,58.813 141.655,58.084 C141.678,58.645 141.727,59.202 141.828,59.75 C142.053,60.967 142.548,62.054 143.316,63.014 C143.955,63.847 144.852,64.55 146.004,65.126 C147.156,65.702 148.452,66.022 149.892,66.086 C151.332,66.149 152.9,65.879 154.596,65.27 C156.291,64.663 158.004,63.59 159.732,62.054 C160.373,61.505 161.003,60.911 161.627,60.296 C161.731,60.777 161.859,61.24 162.035,61.67 C162.611,63.079 163.506,64.166 164.723,64.934 C165.938,65.702 167.378,66.086 169.043,66.086 C171.41,66.086 173.186,65.735 174.371,65.03 C175.555,64.327 176.659,63.655 177.683,63.014 C178.194,63.782 178.802,64.454 179.507,65.03 C180.21,65.606 181.075,65.926 182.099,65.99 C183.122,66.053 184.307,65.798 185.651,65.222 C186.995,64.646 188.531,63.59 190.259,62.054 C190.271,62.043 190.283,62.031 190.295,62.021 C190.3,62.047 190.3,62.076 190.305,62.102 C190.849,64.758 192.753,66.086 196.017,66.086 C197.169,66.086 198.225,65.99 199.185,65.798 C200.145,65.606 201.072,65.287 201.969,64.838 C202.865,64.391 203.76,63.815 204.657,63.11 C205.553,62.407 206.544,61.542 207.633,60.518 C208.147,60.004 208.623,59.515 209.082,59.038 C209.248,59.699 209.453,60.354 209.744,60.998 C210.383,62.471 211.487,63.623 213.056,64.454 C214.624,65.287 216.416,65.766 218.432,65.894 C220.448,66.022 222.56,65.783 224.768,65.174 C226.976,64.567 229.04,63.527 230.96,62.054 C231.92,61.351 232.864,60.583 233.792,59.75 C234.719,58.919 235.583,58.087 236.384,57.254 C236.883,56.736 237.348,56.242 237.798,55.76 C238.011,56.449 238.253,57.113 238.544,57.734 C239.951,60.743 242.144,62.934 245.12,64.31 C248.096,65.687 251.535,66.278 255.44,66.086 C257.039,65.957 258.704,65.606 260.432,65.03 C261.957,64.522 263.531,63.689 265.155,62.533 C264.981,63.287 265.042,63.948 265.375,64.502 C265.855,65.303 266.527,65.846 267.391,66.134 C268.255,66.422 269.152,66.437 270.079,66.182 C271.006,65.926 271.694,65.351 272.143,64.454 L278.671,49.862 C279.567,48.967 280.527,48.119 281.551,47.318 C282.574,46.519 283.598,45.767 284.623,45.062 C284.943,44.807 285.343,44.567 285.823,44.342 C286.303,44.118 286.702,43.975 287.023,43.91 C287.343,43.847 287.551,43.927 287.647,44.15 C287.743,44.375 287.599,44.838 287.215,45.542 C286.894,45.99 286.558,46.55 286.207,47.222 C285.855,47.894 285.471,48.599 285.055,49.334 C284.638,50.071 284.239,50.79 283.855,51.494 C283.471,52.199 283.15,52.806 282.895,53.318 C281.806,55.367 281.023,57.175 280.543,58.742 C280.063,60.311 280.142,61.735 280.783,63.014 C281.167,63.847 281.71,64.55 282.415,65.126 C283.118,65.702 283.999,66.005 285.055,66.038 C286.111,66.069 287.326,65.798 288.703,65.222 C290.078,64.646 291.631,63.59 293.359,62.054 C293.372,62.043 293.384,62.031 293.396,62.02 C293.401,62.046 293.401,62.076 293.406,62.102 C293.95,64.758 295.854,66.086 299.118,66.086 C300.27,66.086 301.326,65.99 302.286,65.798 C303.246,65.606 304.173,65.287 305.07,64.838 C305.703,64.522 306.336,64.138 306.97,63.693 C306.897,63.849 306.822,64.011 306.749,64.166 C305.374,67.109 304.142,69.718 303.053,71.99 C301.965,74.261 301.229,75.845 300.845,76.742 C300.269,77.957 300.221,78.965 300.701,79.766 C301.181,80.565 301.853,81.11 302.717,81.398 C303.581,81.686 304.478,81.686 305.405,81.398 C306.334,81.11 307.022,80.517 307.469,79.622 C307.598,79.366 307.901,78.71 308.381,77.654 C308.861,76.598 309.437,75.302 310.109,73.766 C310.781,72.23 311.549,70.485 312.413,68.534 C313.277,66.581 314.189,64.55 315.149,62.438 C315.788,63.654 316.556,64.519 317.453,65.03 C318.476,65.735 319.789,66.086 321.389,66.086 C322.541,66.214 323.885,66.245 325.421,66.182 C326.957,66.118 328.556,65.894 330.221,65.51 C331.885,65.126 333.457,64.361 335.165,63.782 C343.399,60.993 348.936,53.081 352.434,45.788 C352.697,69.863 372.285,89.3 396.422,89.3 C420.722,89.3 440.422,69.6 440.422,45.3 C440.425,21.001 420.725,1.301 396.425,1.301 L396.425,1.301 Z M216.082,51.495 C216.85,50.151 217.681,48.903 218.578,47.751 C219.474,46.599 220.369,45.591 221.266,44.727 C222.162,43.863 223.026,43.191 223.858,42.711 C224.689,42.231 225.425,41.991 226.066,41.991 C227.346,41.991 227.857,42.632 227.602,43.911 C227.345,45.192 226.45,46.567 224.914,48.039 C223.505,49.383 222.017,50.328 220.45,50.871 C218.881,51.415 217.393,51.655 215.986,51.591 L216.082,51.495 L216.082,51.495 Z M158.773,34.791 C160.053,33 161.653,31.015 163.573,28.839 C165.493,26.664 167.797,24.552 170.485,22.503 C170.613,22.887 170.5,23.448 170.149,24.183 C169.796,24.92 169.268,25.752 168.565,26.679 C167.86,27.607 167.044,28.616 166.117,29.703 C165.189,30.792 164.212,31.848 163.189,32.871 C160.82,35.367 158.068,38.055 154.933,40.935 C155.956,38.952 157.237,36.903 158.773,34.791 L158.773,34.791 Z M33.229,50.731 C32.83,51.299 32.126,52.062 31.096,53.031 C30.007,54.055 28.759,55.08 27.352,56.103 C25.944,57.127 24.472,58.056 22.936,58.887 C21.4,59.719 19.991,60.168 18.712,60.231 C16.152,60.36 13.864,59.911 11.848,58.887 C9.832,57.864 8.344,56.232 7.384,53.991 C6.424,51.751 6.119,48.855 6.472,45.303 C6.823,41.751 8.119,37.543 10.36,32.679 C12.535,27.816 15.271,23.496 18.568,19.719 C21.863,15.944 25.224,12.855 28.648,10.455 C32.071,8.055 35.303,6.423 38.344,5.559 C41.383,4.695 43.768,4.743 45.496,5.703 C46.583,6.344 47.111,7.351 47.08,8.727 C47.047,10.104 46.615,11.655 45.784,13.383 C44.951,15.111 43.831,16.952 42.424,18.903 C41.015,20.856 39.544,22.695 38.008,24.423 C36.472,26.151 34.936,27.703 33.4,29.079 C31.864,30.456 30.52,31.431 29.368,32.007 C28.855,32.263 28.6,32.679 28.6,33.255 C28.6,33.831 28.792,34.375 29.176,34.887 C29.56,35.4 30.088,35.815 30.76,36.135 C31.432,36.456 32.215,36.456 33.112,36.135 C34.456,35.624 36.071,34.536 37.96,32.871 C39.847,31.208 41.736,29.24 43.624,26.967 C44.202,26.271 44.762,25.556 45.313,24.83 L33.229,50.731 L33.229,50.731 Z M77.943,51.111 C77.43,52.2 76.823,53.239 76.119,54.231 C75.414,55.224 74.631,56.088 73.767,56.823 C72.903,57.56 72.006,58.135 71.079,58.551 C70.15,58.968 69.27,59.175 68.439,59.175 C66.774,59.175 65.686,58.392 65.175,56.823 C64.662,55.255 64.887,53.352 65.847,51.111 C66.294,49.959 66.903,48.903 67.671,47.943 C68.439,46.983 69.255,46.136 70.119,45.399 C70.983,44.664 71.878,44.088 72.807,43.671 C73.734,43.255 74.614,43.047 75.447,43.047 C77.111,43.047 78.198,43.831 78.711,45.399 C79.222,46.968 78.966,48.872 77.943,51.111 L77.943,51.111 Z M131.798,51.111 C131.285,52.2 130.677,53.239 129.974,54.231 C129.269,55.224 128.486,56.088 127.622,56.823 C126.758,57.56 125.861,58.135 124.934,58.551 C124.006,58.968 123.125,59.175 122.294,59.175 C120.629,59.175 119.542,58.392 119.03,56.823 C118.517,55.255 118.742,53.352 119.702,51.111 C120.149,49.959 120.758,48.903 121.526,47.943 C122.294,46.983 123.11,46.136 123.974,45.399 C124.838,44.664 125.733,44.088 126.662,43.671 C127.589,43.255 128.469,43.047 129.302,43.047 C130.966,43.047 132.053,43.831 132.566,45.399 C133.077,46.968 132.82,48.872 131.798,51.111 L131.798,51.111 Z M183.492,46.167 C183.204,47.223 182.755,48.375 182.148,49.623 C181.539,50.871 180.756,52.104 179.796,53.319 C178.836,54.6 177.86,55.719 176.868,56.679 C175.875,57.639 174.9,58.407 173.94,58.983 C172.98,59.559 172.1,59.911 171.3,60.039 C170.499,60.168 169.875,60.039 169.428,59.655 C168.915,59.271 168.612,58.68 168.516,57.879 C168.42,57.08 168.516,56.151 168.804,55.095 C169.092,54.039 169.556,52.903 170.196,51.687 C170.835,50.472 171.636,49.224 172.596,47.943 C173.556,46.728 174.531,45.639 175.524,44.679 C176.515,43.719 177.475,42.951 178.404,42.375 C179.331,41.799 180.195,41.432 180.996,41.271 C181.795,41.112 182.451,41.223 182.964,41.607 C183.475,41.991 183.763,42.584 183.828,43.383 C183.891,44.184 183.78,45.111 183.492,46.167 L183.492,46.167 Z M270.535,50.731 C270.136,51.299 269.432,52.062 268.402,53.031 C267.313,54.055 266.065,55.08 264.658,56.103 C263.249,57.127 261.778,58.056 260.242,58.887 C258.706,59.719 257.298,60.168 256.018,60.231 C253.457,60.36 251.17,59.911 249.154,58.887 C247.138,57.864 245.65,56.232 244.69,53.991 C243.73,51.751 243.425,48.855 243.778,45.303 C244.129,41.751 245.425,37.543 247.666,32.679 C249.841,27.816 252.577,23.496 255.874,19.719 C259.17,15.944 262.53,12.855 265.954,10.455 C269.377,8.055 272.61,6.423 275.65,5.559 C278.689,4.695 281.074,4.743 282.802,5.703 C283.89,6.344 284.418,7.351 284.386,8.727 C284.353,10.104 283.921,11.655 283.09,13.383 C282.257,15.111 281.137,16.952 279.73,18.903 C278.321,20.856 276.85,22.695 275.314,24.423 C273.778,26.151 272.242,27.703 270.706,29.079 C269.17,30.456 267.826,31.431 266.674,32.007 C266.161,32.263 265.906,32.679 265.906,33.255 C265.906,33.831 266.098,34.375 266.482,34.887 C266.866,35.4 267.394,35.815 268.066,36.135 C268.738,36.456 269.521,36.456 270.418,36.135 C271.762,35.624 273.377,34.536 275.266,32.871 C277.153,31.208 279.042,29.24 280.93,26.967 C281.508,26.271 282.068,25.556 282.619,24.83 L270.535,50.731 L270.535,50.731 Z M329.84,53.895 C328.943,55.111 328.016,56.199 327.056,57.159 C326.096,58.119 325.151,58.872 324.224,59.415 C323.296,59.959 322.384,60.279 321.488,60.375 C320.591,60.471 319.823,60.295 319.184,59.847 C318.671,59.528 318.383,59 318.32,58.263 C318.255,57.528 318.335,56.648 318.56,55.623 C318.784,54.6 319.184,53.479 319.76,52.263 C320.336,51.048 321.039,49.8 321.872,48.519 C322.703,47.304 323.632,46.231 324.656,45.303 C325.679,44.376 326.656,43.639 327.584,43.095 C328.511,42.552 329.375,42.216 330.176,42.087 C330.975,41.959 331.631,42.055 332.144,42.375 C332.591,42.696 332.879,43.239 333.008,44.007 C333.136,44.775 333.104,45.687 332.912,46.743 C332.72,47.799 332.368,48.951 331.856,50.199 C331.343,51.447 330.671,52.68 329.84,53.895 L329.84,53.895 Z M309.633,33.063 C310.24,33.192 310.992,33.159 311.889,32.967 C312.785,32.775 313.649,32.424 314.481,31.911 C314.801,31.656 315.216,31.272 315.729,30.759 C316.24,30.248 316.656,29.736 316.977,29.223 C317.489,28.327 317.553,27.559 317.169,26.919 C316.785,26.28 316.209,25.832 315.441,25.575 C314.673,25.32 313.841,25.272 312.945,25.431 C312.048,25.591 311.345,26.055 310.833,26.823 C310.512,27.336 310.161,27.896 309.777,28.503 C309.393,29.112 309.105,29.607 308.913,29.991 C308.337,30.888 308.16,31.591 308.385,32.103 C308.608,32.616 309.024,32.936 309.633,33.063 L309.633,33.063 Z" id="Shape"></path>
            </g>
            <g id="Outline" transform="translate(360.000000, 10.000000)" fill="#FFFFFF" sketch:type="MSShapeGroup">
                <path d="M44.425,0.301 C20.124,0.301 0.425,20 0.425,44.301 C0.425,68.602 20.124,88.301 44.425,88.301 C68.725,88.301 88.425,68.602 88.425,44.301 C88.425,20 68.725,0.301 44.425,0.301 L44.425,0.301 Z M44.425,84.3 C22.334,84.3 4.427,66.392 4.427,44.302 C4.427,22.212 22.335,4.304 44.425,4.304 C66.515,4.304 84.423,22.212 84.423,44.302 C84.423,66.392 66.515,84.3 44.425,84.3 L44.425,84.3 Z" id="Shape"></path>
            </g>
            <g id="Green" transform="translate(368.000000, 18.000000)" fill="#8EC369" sketch:type="MSShapeGroup">
                <circle id="Oval" cx="35.997" cy="35.997" r="35.997"></circle>
            </g>
            <g id="UI" transform="translate(385.000000, 38.000000)" fill="#FFFFFF" sketch:type="MSShapeGroup">
                <path d="M22.425,21.301 C22.425,24.301 20.114,28.238 13.425,28.238 C6.735,28.238 4.425,24.301 4.425,21.301 L4.425,0.301 L0.425,0.301 L0.425,19.301 C0.425,27.802 5.489,32.28 13.326,32.28 C21.163,32.28 26.425,28.05 26.425,19.301 L26.451,0.271 L22.425,0.301 L22.425,21.301 L22.425,21.301 Z M34.425,0.301 L34.425,32.301 L38.425,32.301 L38.425,0.301 L34.425,0.301 L34.425,0.301 Z" id="Shape"></path>
            </g>
            <g id="ChocolateChip" transform="translate(8.000000, 9.000000)" fill="#FFFFFF" sketch:type="MSShapeGroup">
                <path d="M309.633,33.063 C310.24,33.192 310.992,33.159 311.889,32.967 C312.785,32.775 313.649,32.424 314.481,31.911 C314.801,31.656 315.216,31.272 315.729,30.759 C316.24,30.247 316.656,29.736 316.977,29.223 C317.489,28.327 317.553,27.559 317.169,26.919 C316.785,26.28 316.209,25.831 315.441,25.575 C314.673,25.32 313.841,25.272 312.945,25.431 C312.048,25.591 311.345,26.055 310.833,26.823 C310.512,27.336 310.161,27.896 309.777,28.503 C309.393,29.112 309.105,29.607 308.913,29.991 C308.337,30.888 308.16,31.591 308.385,32.103 C308.608,32.616 309.024,32.936 309.633,33.063 L309.633,33.063 Z M356.425,27.301 C356.425,27.301 348.425,51.301 336.848,56.871 C332.278,59.07 333.872,58.92 332.528,59.559 C332.847,59.175 333.184,58.76 333.536,58.311 C333.887,57.864 334.223,57.384 334.544,56.871 C335.759,55.015 336.687,53.127 337.328,51.207 C337.967,49.287 338.32,47.463 338.384,45.735 C338.447,44.007 338.207,42.471 337.664,41.127 C337.12,39.783 336.272,38.727 335.12,37.959 C333.839,37.128 332.384,36.792 330.752,36.951 C329.12,37.112 327.44,37.671 325.712,38.631 L327.728,34.023 C328.048,33.255 327.968,32.616 327.488,32.103 C327.008,31.591 326.368,31.239 325.568,31.047 C324.767,30.855 323.951,30.855 323.12,31.047 C322.287,31.239 321.743,31.623 321.488,32.199 C321.039,33.223 320.271,34.903 319.184,37.239 C318.095,39.576 316.863,42.247 315.488,45.255 C314.685,47.01 313.851,48.827 312.994,50.691 C312.181,51.751 311.459,52.612 310.832,53.271 C310.191,53.943 309.327,54.855 308.24,56.007 C307.664,56.583 307.024,57.159 306.32,57.735 C305.615,58.311 304.911,58.824 304.208,59.271 C303.503,59.719 302.847,60.024 302.24,60.183 C301.631,60.343 301.167,60.264 300.848,59.943 C300.527,59.688 300.447,59.223 300.608,58.551 C300.767,57.879 301.055,57.063 301.472,56.103 C301.888,55.143 302.432,54.087 303.104,52.935 C303.776,51.783 304.463,50.568 305.168,49.287 C305.871,48.008 306.671,46.551 307.568,44.919 C308.464,43.287 309.263,41.864 309.968,40.647 C310.479,39.816 310.544,39.096 310.16,38.487 C309.776,37.88 309.215,37.448 308.48,37.191 C307.743,36.936 306.928,36.936 306.032,37.191 C305.135,37.447 304.4,38.023 303.824,38.919 C303.376,39.624 302.847,40.488 302.24,41.511 C301.631,42.536 300.992,43.623 300.32,44.775 C299.648,45.927 298.991,47.095 298.352,48.279 C297.913,49.092 297.49,49.847 297.081,50.553 C297.058,50.581 297.031,50.601 297.008,50.631 C296.24,51.72 295.167,52.968 293.792,54.375 C292.415,55.784 290.992,57.031 289.52,58.119 C289.199,58.376 288.848,58.615 288.464,58.839 C288.08,59.064 287.744,59.208 287.456,59.271 C287.168,59.336 287.008,59.256 286.976,59.031 C286.943,58.807 287.12,58.344 287.504,57.639 C288.335,56.295 289.12,54.999 289.856,53.751 C290.591,52.503 291.311,51.175 292.016,49.767 C293.103,47.784 293.936,46.008 294.512,44.439 C295.088,42.871 295.055,41.448 294.416,40.167 C294.032,39.336 293.535,38.6 292.928,37.959 C292.319,37.32 291.568,36.936 290.672,36.807 C289.775,36.679 288.671,36.872 287.36,37.383 C286.048,37.896 284.528,38.919 282.8,40.455 C283.952,37.896 285.056,35.4 286.112,32.967 C287.168,30.536 288.143,28.344 289.04,26.391 C289.936,24.44 290.672,22.791 291.248,21.447 C291.824,20.103 292.208,19.239 292.4,18.855 C292.72,18.087 292.64,17.448 292.16,16.935 C291.68,16.424 291.039,16.071 290.24,15.879 C289.586,15.722 288.934,15.69 288.281,15.767 C288.857,14.538 289.336,13.326 289.712,12.135 C290.48,9.703 290.704,7.512 290.384,5.559 C290.063,3.607 288.879,2.151 286.832,1.191 C283.823,-0.28 280.352,-0.76 276.416,-0.249 C272.48,0.264 268.432,1.719 264.272,4.119 C260.111,6.519 256.079,9.895 252.176,14.247 C248.272,18.6 244.88,23.88 242,30.087 C239.12,36.295 237.471,41.703 237.056,46.311 C236.946,47.526 236.904,48.682 236.921,49.786 C236.448,49.905 236.059,50.183 235.76,50.631 C235.376,51.207 234.848,51.831 234.176,52.503 C233.504,53.175 232.784,53.864 232.016,54.567 C231.248,55.272 230.464,55.944 229.664,56.583 C228.863,57.224 228.08,57.768 227.312,58.215 C225.776,59.175 224.288,59.799 222.848,60.087 C221.408,60.375 220.127,60.423 219.008,60.231 C217.888,60.039 216.959,59.607 216.224,58.935 C215.488,58.263 215.056,57.416 214.928,56.391 C215.696,56.456 216.623,56.456 217.712,56.391 C218.799,56.328 219.983,56.088 221.264,55.671 C222.543,55.255 223.888,54.648 225.296,53.847 C226.703,53.048 228.143,51.944 229.616,50.535 C230.384,49.831 231.135,48.888 231.872,47.703 C232.607,46.52 233.12,45.288 233.408,44.007 C233.696,42.727 233.648,41.511 233.264,40.359 C232.88,39.207 231.983,38.343 230.576,37.767 C229.04,37.191 227.36,37.032 225.536,37.287 C223.712,37.544 221.919,38.184 220.16,39.207 C218.399,40.231 216.704,41.559 215.072,43.191 C213.44,44.823 212.015,46.695 210.8,48.807 C210.478,49.391 210.206,49.995 209.956,50.607 C209.95,50.616 209.942,50.622 209.936,50.631 C209.103,51.72 208.367,52.599 207.728,53.271 C207.087,53.943 206.192,54.855 205.04,56.007 C204.464,56.583 203.823,57.159 203.12,57.735 C202.415,58.311 201.728,58.824 201.056,59.271 C200.384,59.719 199.744,60.024 199.136,60.183 C198.527,60.343 198.064,60.264 197.744,59.943 C197.423,59.688 197.343,59.223 197.504,58.551 C197.663,57.879 197.951,57.063 198.368,56.103 C198.784,55.143 199.328,54.087 200,52.935 C200.672,51.783 201.359,50.568 202.064,49.287 L210.032,35.271 L215.696,35.079 C216.527,35.079 217.295,34.776 218,34.167 C218.703,33.56 219.215,32.919 219.536,32.247 C219.856,31.575 219.92,30.968 219.728,30.423 C219.536,29.88 218.96,29.607 218,29.607 C217.487,29.672 216.815,29.703 215.984,29.703 L213.296,29.703 L214.256,28.071 C214.703,27.24 214.751,26.52 214.4,25.911 C214.048,25.304 213.488,24.872 212.72,24.615 C211.952,24.36 211.119,24.36 210.224,24.615 C209.327,24.872 208.592,25.448 208.016,26.343 L205.904,29.799 C204.879,29.864 203.951,29.895 203.12,29.895 L201.104,29.895 C200.08,29.96 199.151,30.279 198.32,30.855 C197.488,31.431 196.911,32.072 196.592,32.775 C196.271,33.48 196.304,34.104 196.688,34.647 C197.072,35.192 197.936,35.463 199.28,35.463 L201.008,35.463 C201.584,35.463 202.127,35.432 202.64,35.367 C201.743,36.968 200.816,38.6 199.856,40.263 C198.896,41.928 197.984,43.496 197.12,44.967 C196.256,46.44 195.503,47.751 194.864,48.903 C194.484,49.587 194.168,50.156 193.901,50.637 C193.135,51.723 192.416,52.6 191.746,53.271 C191.074,53.943 190.194,54.855 189.106,56.007 C188.53,56.583 187.954,57.031 187.378,57.351 C186.802,57.672 186.289,57.848 185.842,57.879 C185.393,57.912 185.122,57.783 185.026,57.495 C184.93,57.207 185.074,56.712 185.458,56.007 C185.905,55.368 186.497,54.36 187.234,52.983 C187.969,51.607 188.753,50.136 189.586,48.567 C190.417,46.999 191.218,45.463 191.986,43.959 C192.754,42.456 193.393,41.192 193.906,40.167 C194.418,39.271 194.466,38.568 194.05,38.055 C193.633,37.543 193.026,37.239 192.226,37.143 C191.425,37.047 190.578,37.176 189.682,37.527 C188.785,37.879 188.146,38.439 187.762,39.207 C187.314,38.76 186.833,38.376 186.322,38.055 C185.809,37.735 185.25,37.464 184.642,37.239 C184.033,37.015 183.313,36.903 182.482,36.903 C181.266,36.903 179.842,37.159 178.21,37.671 C176.578,38.184 174.898,38.983 173.17,40.071 C171.442,41.16 169.729,42.552 168.034,44.247 C166.337,45.943 164.881,47.943 163.666,50.247 C163.592,50.381 163.537,50.508 163.467,50.641 C162.571,51.728 161.47,52.987 160.163,54.423 C158.85,55.863 157.49,57.128 156.083,58.215 C154.355,59.496 152.93,60.12 151.811,60.087 C150.691,60.056 149.858,59.64 149.315,58.839 C148.771,58.04 148.514,57 148.547,55.719 C148.578,54.44 148.85,53.192 149.363,51.975 C151.283,50.439 153.235,48.84 155.219,47.175 C156.883,45.768 158.659,44.232 160.547,42.567 C162.434,40.903 164.21,39.303 165.875,37.767 C168.307,35.463 170.291,33.319 171.827,31.335 C173.363,29.352 174.515,27.543 175.283,25.911 C176.051,24.279 176.483,22.807 176.579,21.495 C176.675,20.184 176.498,19.016 176.051,17.991 C175.538,16.776 174.899,16.087 174.131,15.927 C173.363,15.768 172.211,16.071 170.675,16.839 C168.626,17.799 166.403,19.304 164.003,21.351 C161.603,23.4 159.203,25.815 156.803,28.599 C154.403,31.383 152.083,34.488 149.843,37.911 C147.602,41.335 145.619,44.967 143.891,48.807 C143.613,49.397 143.358,50.009 143.118,50.636 C142.222,51.723 141.153,52.617 139.907,53.319 C138.659,54.024 137.555,54.343 136.595,54.279 C136.85,53.832 137.075,53.384 137.267,52.935 C137.459,52.488 137.651,52.008 137.843,51.495 C138.547,49.512 138.899,47.64 138.899,45.879 C138.899,44.119 138.594,42.583 137.987,41.271 C137.378,39.96 136.466,38.919 135.251,38.151 C134.034,37.383 132.563,36.999 130.835,36.999 C129.107,36.999 127.362,37.383 125.603,38.151 C123.842,38.919 122.162,39.96 120.563,41.271 C118.962,42.583 117.522,44.12 116.243,45.879 C115.141,47.394 114.242,48.995 113.52,50.674 C113.078,51.238 112.547,51.847 111.924,52.503 C111.283,53.175 110.58,53.864 109.812,54.567 C109.044,55.272 108.243,55.944 107.412,56.583 C106.579,57.224 105.78,57.768 105.012,58.215 C103.028,59.431 101.235,60.087 99.636,60.183 C98.036,60.279 96.756,59.959 95.796,59.223 C94.836,58.488 94.275,57.447 94.116,56.103 C93.955,54.759 94.356,53.223 95.316,51.495 C96.084,50.151 96.915,48.903 97.812,47.751 C98.708,46.599 99.603,45.591 100.5,44.727 C101.396,43.863 102.26,43.191 103.092,42.711 C103.923,42.231 104.659,41.991 105.3,41.991 C105.939,41.991 106.227,42.199 106.164,42.615 C106.099,43.032 105.843,43.544 105.396,44.151 C104.948,44.76 104.403,45.384 103.764,46.023 C103.124,46.664 102.579,47.208 102.132,47.655 C101.684,48.039 101.556,48.519 101.748,49.095 C101.94,49.671 102.291,50.168 102.804,50.583 C103.316,51 103.939,51.24 104.676,51.303 C105.411,51.367 106.131,51.111 106.836,50.535 C107.604,49.896 108.468,48.984 109.428,47.799 C110.388,46.615 111.123,45.367 111.636,44.055 C112.148,42.744 112.323,41.511 112.164,40.359 C112.004,39.207 111.219,38.343 109.812,37.767 C108.276,37.191 106.596,37.032 104.772,37.287 C102.948,37.544 101.156,38.184 99.396,39.207 C97.635,40.231 95.94,41.559 94.308,43.191 C92.676,44.823 91.251,46.695 90.036,48.807 C89.682,49.437 89.375,50.108 89.105,50.811 C88.241,51.816 87.228,52.656 86.052,53.319 C84.804,54.024 83.7,54.343 82.74,54.279 C82.995,53.832 83.22,53.384 83.412,52.935 C83.604,52.488 83.796,52.008 83.988,51.495 C84.691,49.512 85.044,47.64 85.044,45.879 C85.044,44.119 84.739,42.583 84.132,41.271 C83.523,39.96 82.611,38.919 81.396,38.151 C80.18,37.383 78.708,36.999 76.98,36.999 C75.252,36.999 73.508,37.383 71.748,38.151 C69.987,38.919 68.307,39.96 66.708,41.271 C65.108,42.583 63.668,44.12 62.388,45.879 C61.284,47.396 60.384,49.001 59.661,50.684 C58.896,51.761 57.839,52.99 56.484,54.375 C55.107,55.784 53.683,57.031 52.212,58.119 C51.891,58.376 51.54,58.615 51.156,58.839 C50.772,59.064 50.436,59.208 50.148,59.271 C49.86,59.336 49.699,59.256 49.668,59.031 C49.635,58.807 49.812,58.344 50.196,57.639 C51.027,56.295 51.811,54.999 52.548,53.751 C53.283,52.503 54.003,51.175 54.708,49.767 C55.796,47.784 56.628,46.008 57.204,44.439 C57.78,42.871 57.747,41.448 57.108,40.167 C56.724,39.336 56.228,38.6 55.62,37.959 C55.011,37.32 54.259,36.936 53.364,36.807 C52.467,36.679 51.363,36.872 50.052,37.383 C48.74,37.896 47.22,38.919 45.492,40.455 C46.644,37.896 47.748,35.4 48.804,32.967 C49.86,30.536 50.835,28.344 51.732,26.391 C52.628,24.44 53.364,22.791 53.94,21.447 C54.516,20.103 54.9,19.239 55.092,18.855 C55.412,18.087 55.332,17.448 54.852,16.935 C54.372,16.424 53.732,16.071 52.932,15.879 C52.278,15.722 51.626,15.69 50.974,15.767 C51.55,14.538 52.029,13.326 52.405,12.135 C53.173,9.703 53.396,7.512 53.077,5.559 C52.756,3.607 51.573,2.151 49.525,1.191 C46.516,-0.28 43.045,-0.76 39.109,-0.249 C35.173,0.264 31.125,1.719 26.965,4.119 C22.804,6.519 18.772,9.895 14.869,14.247 C10.965,18.6 7.573,23.88 4.693,30.087 C1.813,36.295 0.164,41.703 -0.251,46.311 C-0.668,50.919 -0.172,54.728 1.237,57.735 C2.644,60.744 4.837,62.936 7.813,64.311 C10.789,65.688 14.228,66.279 18.133,66.087 C19.732,65.958 21.397,65.607 23.125,65.031 C24.65,64.523 26.224,63.69 27.848,62.534 C27.674,63.288 27.735,63.949 28.068,64.503 C28.548,65.304 29.22,65.847 30.084,66.135 C30.948,66.423 31.845,66.438 32.772,66.183 C33.699,65.926 34.387,65.352 34.836,64.455 L41.364,49.863 C42.26,48.967 43.22,48.12 44.244,47.319 C45.267,46.52 46.292,45.768 47.316,45.063 C47.636,44.808 48.036,44.568 48.516,44.343 C48.996,44.119 49.395,43.976 49.716,43.911 C50.036,43.848 50.244,43.927 50.34,44.151 C50.436,44.376 50.292,44.84 49.908,45.543 C49.587,45.991 49.251,46.551 48.9,47.223 C48.547,47.895 48.163,48.6 47.748,49.335 C47.331,50.072 46.932,50.791 46.548,51.495 C46.164,52.2 45.843,52.807 45.588,53.319 C44.499,55.368 43.716,57.175 43.236,58.743 C42.756,60.312 42.835,61.736 43.476,63.015 C43.86,63.848 44.403,64.551 45.108,65.127 C45.812,65.703 46.692,66.006 47.748,66.039 C48.804,66.07 50.019,65.799 51.396,65.223 C52.772,64.647 54.324,63.591 56.052,62.055 C56.903,61.325 57.724,60.534 58.518,59.688 C58.67,60.402 58.884,61.066 59.172,61.671 C59.78,62.952 60.692,63.975 61.908,64.743 C63.123,65.511 64.563,65.895 66.228,65.895 C68.468,65.895 70.723,65.287 72.996,64.071 C75.267,62.856 77.331,61.224 79.188,59.175 C80.595,59.751 82.051,59.895 83.556,59.607 C85.059,59.319 86.484,58.808 87.828,58.071 C87.886,58.04 87.938,58.005 87.995,57.973 C88.046,58.553 88.127,59.13 88.26,59.703 C88.548,60.951 89.076,62.055 89.844,63.015 C90.483,63.848 91.476,64.536 92.82,65.079 C94.164,65.623 95.7,65.91 97.428,65.943 C99.156,65.974 100.995,65.703 102.948,65.127 C104.9,64.551 106.803,63.528 108.66,62.055 C109.62,61.352 110.564,60.584 111.492,59.751 C111.763,59.508 112.001,59.264 112.264,59.021 C112.408,59.992 112.653,60.882 113.027,61.671 C113.634,62.952 114.547,63.975 115.763,64.743 C116.978,65.511 118.418,65.895 120.083,65.895 C122.323,65.895 124.579,65.287 126.851,64.071 C129.122,62.856 131.186,61.224 133.043,59.175 C134.45,59.751 135.906,59.895 137.411,59.607 C138.903,59.321 140.318,58.814 141.654,58.085 C141.677,58.646 141.726,59.203 141.827,59.751 C142.052,60.967 142.547,62.055 143.315,63.015 C143.954,63.848 144.851,64.551 146.003,65.127 C147.155,65.703 148.451,66.023 149.891,66.087 C151.331,66.15 152.899,65.88 154.595,65.271 C156.29,64.664 158.003,63.591 159.731,62.055 C160.372,61.506 161.002,60.912 161.626,60.297 C161.73,60.778 161.858,61.241 162.034,61.671 C162.61,63.08 163.505,64.167 164.722,64.935 C165.937,65.703 167.377,66.087 169.042,66.087 C171.409,66.087 173.185,65.736 174.37,65.031 C175.554,64.328 176.658,63.656 177.682,63.015 C178.193,63.783 178.801,64.455 179.506,65.031 C180.209,65.607 181.074,65.927 182.098,65.991 C183.121,66.054 184.306,65.799 185.65,65.223 C186.994,64.647 188.53,63.591 190.258,62.055 C190.27,62.044 190.282,62.032 190.294,62.022 C190.299,62.048 190.299,62.077 190.304,62.103 C190.848,64.759 192.752,66.087 196.016,66.087 C197.168,66.087 198.224,65.991 199.184,65.799 C200.144,65.607 201.071,65.287 201.968,64.839 C202.864,64.392 203.759,63.816 204.656,63.111 C205.552,62.408 206.543,61.543 207.632,60.519 C208.146,60.005 208.622,59.516 209.081,59.039 C209.247,59.7 209.452,60.355 209.743,60.999 C210.382,62.472 211.486,63.624 213.055,64.455 C214.623,65.287 216.415,65.767 218.431,65.895 C220.447,66.023 222.559,65.784 224.767,65.175 C226.975,64.568 229.039,63.528 230.959,62.055 C231.919,61.352 232.863,60.584 233.791,59.751 C234.718,58.92 235.582,58.087 236.383,57.255 C236.882,56.737 237.347,56.243 237.797,55.761 C238.01,56.45 238.252,57.114 238.543,57.735 C239.95,60.744 242.143,62.936 245.119,64.311 C248.095,65.688 251.534,66.279 255.439,66.087 C257.038,65.958 258.703,65.607 260.431,65.031 C261.956,64.523 263.53,63.69 265.154,62.534 C264.98,63.288 265.041,63.949 265.374,64.503 C265.854,65.304 266.526,65.847 267.39,66.135 C268.254,66.423 269.151,66.438 270.078,66.183 C271.005,65.926 271.693,65.352 272.142,64.455 L278.67,49.863 C279.566,48.967 280.526,48.12 281.55,47.319 C282.573,46.52 283.597,45.768 284.622,45.063 C284.942,44.808 285.342,44.568 285.822,44.343 C286.302,44.119 286.701,43.976 287.022,43.911 C287.342,43.848 287.55,43.927 287.646,44.151 C287.742,44.376 287.598,44.84 287.214,45.543 C286.893,45.991 286.557,46.551 286.206,47.223 C285.854,47.895 285.47,48.6 285.054,49.335 C284.637,50.072 284.238,50.791 283.854,51.495 C283.47,52.2 283.149,52.807 282.894,53.319 C281.805,55.368 281.022,57.175 280.542,58.743 C280.062,60.312 280.141,61.736 280.782,63.015 C281.166,63.848 281.709,64.551 282.414,65.127 C283.117,65.703 283.998,66.006 285.054,66.039 C286.11,66.07 287.325,65.799 288.702,65.223 C290.077,64.647 291.63,63.591 293.358,62.055 C293.371,62.044 293.383,62.032 293.395,62.021 C293.4,62.047 293.4,62.077 293.405,62.103 C293.949,64.759 295.853,66.087 299.117,66.087 C300.269,66.087 301.325,65.991 302.285,65.799 C303.245,65.607 304.172,65.287 305.069,64.839 C305.702,64.523 306.335,64.139 306.969,63.694 C306.896,63.85 306.821,64.012 306.748,64.167 C305.373,67.11 304.141,69.719 303.052,71.991 C301.964,74.262 301.228,75.846 300.844,76.743 C300.268,77.958 300.22,78.966 300.7,79.767 C301.18,80.566 301.852,81.111 302.716,81.399 C303.58,81.687 304.477,81.687 305.404,81.399 C306.333,81.111 307.021,80.519 307.468,79.623 C307.597,79.367 307.9,78.711 308.38,77.655 C308.86,76.599 309.436,75.303 310.108,73.767 C310.78,72.231 311.548,70.486 312.412,68.535 C313.276,66.582 314.188,64.551 315.148,62.439 C315.787,63.655 316.555,64.52 317.452,65.031 C318.475,65.736 319.788,66.087 321.388,66.087 C322.54,66.215 323.884,66.246 325.42,66.183 C326.956,66.118 328.555,65.895 330.22,65.511 C331.884,65.127 333.456,64.362 335.164,63.783 C351.437,58.271 357.19,32.748 357.444,31.542 L356.425,27.301 L356.425,27.301 Z M216.082,51.495 C216.85,50.151 217.681,48.903 218.578,47.751 C219.474,46.599 220.369,45.591 221.266,44.727 C222.162,43.863 223.026,43.191 223.858,42.711 C224.689,42.231 225.425,41.991 226.066,41.991 C227.346,41.991 227.857,42.632 227.602,43.911 C227.345,45.192 226.45,46.567 224.914,48.039 C223.505,49.383 222.017,50.328 220.45,50.871 C218.881,51.415 217.393,51.655 215.986,51.591 L216.082,51.495 L216.082,51.495 Z M158.773,34.791 C160.053,33 161.653,31.015 163.573,28.839 C165.493,26.664 167.797,24.552 170.485,22.503 C170.613,22.887 170.5,23.448 170.149,24.183 C169.796,24.92 169.268,25.752 168.565,26.679 C167.86,27.608 167.044,28.616 166.117,29.703 C165.189,30.792 164.212,31.848 163.189,32.871 C160.82,35.367 158.068,38.055 154.933,40.935 C155.956,38.952 157.237,36.903 158.773,34.791 L158.773,34.791 Z M33.229,50.731 C32.83,51.299 32.126,52.062 31.096,53.031 C30.007,54.056 28.759,55.08 27.352,56.103 C25.944,57.127 24.472,58.056 22.936,58.887 C21.4,59.719 19.991,60.168 18.712,60.231 C16.152,60.36 13.864,59.911 11.848,58.887 C9.832,57.864 8.344,56.232 7.384,53.991 C6.424,51.751 6.119,48.855 6.472,45.303 C6.823,41.751 8.119,37.543 10.36,32.679 C12.535,27.816 15.271,23.496 18.568,19.719 C21.863,15.943 25.224,12.855 28.648,10.455 C32.071,8.055 35.303,6.423 38.344,5.559 C41.383,4.695 43.768,4.743 45.496,5.703 C46.583,6.344 47.111,7.351 47.08,8.727 C47.047,10.104 46.615,11.655 45.784,13.383 C44.951,15.111 43.831,16.951 42.424,18.903 C41.015,20.856 39.544,22.695 38.008,24.423 C36.472,26.151 34.936,27.703 33.4,29.079 C31.864,30.456 30.52,31.431 29.368,32.007 C28.855,32.263 28.6,32.679 28.6,33.255 C28.6,33.831 28.792,34.375 29.176,34.887 C29.56,35.4 30.088,35.816 30.76,36.135 C31.432,36.456 32.215,36.456 33.112,36.135 C34.456,35.623 36.071,34.536 37.96,32.871 C39.847,31.207 41.736,29.239 43.624,26.967 C44.202,26.272 44.762,25.556 45.313,24.83 L33.229,50.731 L33.229,50.731 Z M77.943,51.111 C77.43,52.2 76.823,53.239 76.119,54.231 C75.414,55.224 74.631,56.088 73.767,56.823 C72.903,57.56 72.006,58.135 71.079,58.551 C70.15,58.968 69.27,59.175 68.439,59.175 C66.774,59.175 65.686,58.392 65.175,56.823 C64.662,55.255 64.887,53.352 65.847,51.111 C66.294,49.959 66.903,48.903 67.671,47.943 C68.439,46.983 69.255,46.135 70.119,45.399 C70.983,44.664 71.878,44.088 72.807,43.671 C73.734,43.255 74.614,43.047 75.447,43.047 C77.111,43.047 78.198,43.831 78.711,45.399 C79.222,46.968 78.966,48.872 77.943,51.111 L77.943,51.111 Z M131.798,51.111 C131.285,52.2 130.677,53.239 129.974,54.231 C129.269,55.224 128.486,56.088 127.622,56.823 C126.758,57.56 125.861,58.135 124.934,58.551 C124.006,58.968 123.125,59.175 122.294,59.175 C120.629,59.175 119.542,58.392 119.03,56.823 C118.517,55.255 118.742,53.352 119.702,51.111 C120.149,49.959 120.758,48.903 121.526,47.943 C122.294,46.983 123.11,46.135 123.974,45.399 C124.838,44.664 125.733,44.088 126.662,43.671 C127.589,43.255 128.469,43.047 129.302,43.047 C130.966,43.047 132.053,43.831 132.566,45.399 C133.077,46.968 132.82,48.872 131.798,51.111 L131.798,51.111 Z M183.492,46.167 C183.204,47.223 182.755,48.375 182.148,49.623 C181.539,50.871 180.756,52.104 179.796,53.319 C178.836,54.6 177.86,55.719 176.868,56.679 C175.875,57.639 174.9,58.407 173.94,58.983 C172.98,59.559 172.1,59.911 171.3,60.039 C170.499,60.168 169.875,60.039 169.428,59.655 C168.915,59.271 168.612,58.68 168.516,57.879 C168.42,57.08 168.516,56.151 168.804,55.095 C169.092,54.039 169.556,52.903 170.196,51.687 C170.835,50.472 171.636,49.224 172.596,47.943 C173.556,46.728 174.531,45.639 175.524,44.679 C176.515,43.719 177.475,42.951 178.404,42.375 C179.331,41.799 180.195,41.432 180.996,41.271 C181.795,41.112 182.451,41.223 182.964,41.607 C183.475,41.991 183.763,42.584 183.828,43.383 C183.891,44.184 183.78,45.111 183.492,46.167 L183.492,46.167 Z M270.535,50.731 C270.136,51.299 269.432,52.062 268.402,53.031 C267.313,54.056 266.065,55.08 264.658,56.103 C263.249,57.127 261.778,58.056 260.242,58.887 C258.706,59.719 257.298,60.168 256.018,60.231 C253.457,60.36 251.17,59.911 249.154,58.887 C247.138,57.864 245.65,56.232 244.69,53.991 C243.73,51.751 243.425,48.855 243.778,45.303 C244.129,41.751 245.425,37.543 247.666,32.679 C249.841,27.816 252.577,23.496 255.874,19.719 C259.17,15.943 262.53,12.855 265.954,10.455 C269.377,8.055 272.61,6.423 275.65,5.559 C278.689,4.695 281.074,4.743 282.802,5.703 C283.89,6.344 284.418,7.351 284.386,8.727 C284.353,10.104 283.921,11.655 283.09,13.383 C282.257,15.111 281.137,16.951 279.73,18.903 C278.321,20.856 276.85,22.695 275.314,24.423 C273.778,26.151 272.242,27.703 270.706,29.079 C269.17,30.456 267.826,31.431 266.674,32.007 C266.161,32.263 265.906,32.679 265.906,33.255 C265.906,33.831 266.098,34.375 266.482,34.887 C266.866,35.4 267.394,35.816 268.066,36.135 C268.738,36.456 269.521,36.456 270.418,36.135 C271.762,35.623 273.377,34.536 275.266,32.871 C277.153,31.207 279.042,29.239 280.93,26.967 C281.508,26.272 282.068,25.556 282.619,24.83 L270.535,50.731 L270.535,50.731 Z M329.84,53.895 C328.943,55.111 328.016,56.199 327.056,57.159 C326.096,58.119 325.151,58.872 324.224,59.415 C323.296,59.96 322.384,60.279 321.488,60.375 C320.591,60.471 319.823,60.296 319.184,59.847 C318.671,59.528 318.383,59 318.32,58.263 C318.255,57.528 318.335,56.648 318.56,55.623 C318.784,54.6 319.184,53.48 319.76,52.263 C320.336,51.048 321.039,49.8 321.872,48.519 C322.703,47.304 323.632,46.231 324.656,45.303 C325.679,44.376 326.656,43.639 327.584,43.095 C328.511,42.552 329.375,42.216 330.176,42.087 C330.975,41.959 331.631,42.056 332.144,42.375 C332.591,42.696 332.879,43.239 333.008,44.007 C333.136,44.775 333.104,45.687 332.912,46.743 C332.72,47.799 332.368,48.951 331.856,50.199 C331.343,51.447 330.671,52.68 329.84,53.895 L329.84,53.895 Z" id="Shape"></path>
            </g>
        </g>
    </g>
</svg>