<?xml version="1.0" encoding="utf-8"?>
<!-- Generator: Adobe Illustrator 17.1.0, SVG Export Plug-In . SVG Version: 6.00 Build 0)  -->
<!DOCTYPE svg PUBLIC "-//W3C//DTD SVG 1.0//EN" "http://www.w3.org/TR/2001/REC-SVG-20010904/DTD/svg10.dtd">
<svg version="1.0" id="Layer_1" xmlns="http://www.w3.org/2000/svg" xmlns:xlink="http://www.w3.org/1999/xlink" x="0px" y="0px"
	 viewBox="0 0 400 400" enable-background="new 0 0 400 400" xml:space="preserve">
<g id="Outline">
	<g>
		<path fill-rule="evenodd" clip-rule="evenodd" fill="#3E3B38" d="M200,43.182c-82.843,0-150,67.157-150,150s67.157,150,150,150
			c82.843,0,150-67.157,150-150S282.843,43.182,200,43.182z M200,329.54c-75.309,0-136.358-61.05-136.358-136.358
			S124.691,56.823,200,56.823c75.308,0,136.358,61.05,136.358,136.358S275.309,329.54,200,329.54z"/>
	</g>
</g>
<g id="Green">
	<g>
		<circle fill-rule="evenodd" clip-rule="evenodd" fill="#8EC369" cx="200" cy="193.182" r="122.716"/>
	</g>
</g>
<g id="UI">
	<g>
		<path fill-rule="evenodd" clip-rule="evenodd" fill="#FFFFFF" d="M210.227,210.227c0,10.227-7.877,23.648-30.682,23.648
			c-22.805,0-30.681-13.421-30.681-23.648v-71.591h-13.636v64.773c0,28.982,17.265,44.245,43.982,44.245
			s44.655-14.419,44.655-44.245l0.088-64.876l-13.724,0.103V210.227z M251.136,138.636v109.091h13.636V138.636H251.136z"/>
	</g>
</g>
</svg>
